<svg xmlns="http://www.w3.org/2000/svg" viewBox="0 0 290 88"><defs><style>.cls-1{fill:#231f20;}.cls-2{fill:#fff;}.cls-3{fill:#ee3124;}</style></defs><title>adobe_logo</title><g id="Layer_2" data-name="Layer 2"><rect class="cls-1" width="290" height="88"/></g><g id="Layer_1" data-name="Layer 1"><path class="cls-2" d="M172.48,123.56l-2.94,14.8H158.68l13.54-61.59h13.3l12.3,61.59H186.91L184,123.56ZM183,114.88l-2.26-13.35c-.65-3.84-1.47-9.85-2.1-14h-.24c-.67,4.19-1.59,10.37-2.27,14l-2.42,13.33Z" transform="translate(-69 -66)"/><path class="cls-2" d="M233.66,75.13v50.46c0,4,.21,8.93.37,12.77h-9.62l-.63-5.13h-.23a10.71,10.71,0,0,1-9.33,5.87c-9.22,0-13.78-10.14-13.78-22.93,0-15.59,6.81-23.17,14.24-23.17a7.89,7.89,0,0,1,7.66,4.63h.18V75.13Zm-11.14,35.71a15,15,0,0,0-.16-2.66c-.43-3-2.06-5.78-4.67-5.78-4.48,0-6.12,6.44-6.12,14,0,8.65,2.35,13.57,6,13.57,1.66,0,3.56-.86,4.61-4.48a9.1,9.1,0,0,0,.38-2.82Z" transform="translate(-69 -66)"/><path class="cls-2" d="M256.64,139.09c-10.26,0-16.71-8.23-16.71-22.93,0-16,8.26-23.17,17-23.17,10.12,0,16.48,8.62,16.48,22.92,0,18.37-9.94,23.18-16.64,23.18Zm.21-8.52c4.25,0,5.31-8,5.31-14.59,0-6.29-1.05-14.47-5.49-14.47-4.7,0-5.69,8.19-5.69,14.47,0,7.58,1.25,14.59,5.78,14.59Z" transform="translate(-69 -66)"/><path class="cls-2" d="M279.6,75.13h11.14V98.4h.18C293.11,95,296,93,300.28,93c8.4,0,12.61,9.52,12.61,21.95,0,15.72-6.29,24.15-14.43,24.15-3.89,0-6.48-1.73-8.8-6.07h-.23l-.63,5.34h-9.56c.16-3.71.37-8.76.37-12.77Zm11.14,47.29a9.08,9.08,0,0,0,.44,2.85c1.11,3.74,3,4.66,4.53,4.66,4.29,0,6-5.44,6-14.15,0-7.91-1.83-13.37-6.1-13.37-2.11,0-3.88,2.29-4.5,4.74a11.72,11.72,0,0,0-.42,2.81Z" transform="translate(-69 -66)"/><path class="cls-2" d="M328.36,119.64c.13,8.06,4.4,10.69,9.66,10.69a23.46,23.46,0,0,0,8.36-1.54l1.5,8A32.63,32.63,0,0,1,336,138.84c-12,0-18.49-8.14-18.49-22,0-14.93,7.58-23.88,17.46-23.88,9.55,0,14.86,7.91,14.86,20.86a40.36,40.36,0,0,1-.32,5.91Zm11.22-7.85c.06-6.26-1.78-10.66-5.31-10.66-4,0-5.75,5.89-5.88,10.66Z" transform="translate(-69 -66)"/><polygon class="cls-3" points="55.46 8.37 82.53 8.37 82.53 72.95 55.46 8.37"/><polygon class="cls-3" points="36.39 8.37 9.3 8.37 9.3 72.95 36.39 8.37"/><polygon class="cls-3" points="45.93 32.17 63.17 72.95 51.87 72.95 46.71 59.96 34.09 59.96 45.93 32.17"/></g></svg>