<svg id="Layer_1" data-name="Layer 1" xmlns="http://www.w3.org/2000/svg" viewBox="0 0 111.11 145.76"><defs><style>.cls-1{fill:#fff;}</style></defs><title>if</title><path class="cls-1" d="M63.05,106.28c0-7.92,0-8.93-5.48-12.59l-1.83-1.22c-.81-.81-.81-3,.2-3.65,4.67-1.62,16.24-6.9,20.91-9.95a1.88,1.88,0,0,1,2,1.22c-.41,7.1-.81,16.85-.81,25.17v36.54c0,14.62.41,16.65,7.71,17.66l4.26.61c1.42,1,1,4.47-.41,5.08-6.09-.41-12-.61-19.08-.61-7.31,0-13.4.2-19.08.61-1.42-.61-1.83-4.06-.41-5.08l4.26-.61c7.51-1,7.71-3,7.71-17.66ZM79.9,48.42C79.9,55.73,74.83,59,69.14,59A10,10,0,0,1,58.79,48.83a10.55,10.55,0,0,1,11-11C75.84,37.87,79.9,42.74,79.9,48.42Z" transform="translate(-50.19 -19.39)"/><path class="cls-1" d="M117,93.08c-3.45,0-3.45.41-3.45,5.89v42.83c0,14.62.41,17.05,7.71,17.66l7.31.61c1.42,1,1,4.47-.41,5.08-9.13-.41-15-.61-22.13-.61-7.31,0-13.4.2-19.49.61-1.42-.61-1.83-4.06-.41-5.08l4.67-.61c7.51-1,7.71-3,7.71-17.66V99c0-5.48,0-5.89-4.06-5.89h-7.1a2.84,2.84,0,0,1-.61-3.86L95.53,85c1.62-.81,3-2,3-4.06,0-11.77,1.42-24.36,6.29-35.73,5.08-11.57,16.44-25.78,36.54-25.78,10.76,0,19.89,4.87,19.89,12.18,0,4.06-3.86,7.31-7.71,7.31a5.79,5.79,0,0,1-4.87-2.44c-3.86-4.47-9.54-8.93-16.24-8.93-6.29,0-11.37,3.86-14.41,11.17C114.41,48,113.6,62.84,113.6,73v5.89c0,5.48,0,5.68,3.45,5.68h23.14c2.23,2,.81,7.71-1.42,8.53Z" transform="translate(-50.19 -19.39)"/></svg>